<svg width="1217" height="1096" viewBox="0 0 1217 1096" fill="none" xmlns="http://www.w3.org/2000/svg">
<path fill-rule="evenodd" clip-rule="evenodd" d="M785.03 723.578C864.172 679.178 925.168 608.347 957.332 523.492H885.05C859.319 591.376 810.522 620.643 747.209 656.162C683.896 691.682 610.103 703.792 538.758 690.37C467.413 676.948 403.065 638.851 356.988 582.751C310.911 526.652 286.042 456.129 286.738 383.535C287.434 310.942 313.651 240.909 360.796 185.703C407.941 130.498 473.007 93.6418 544.597 81.5907C576.208 76.2693 608.202 75.9344 639.468 80.3821L471.875 289.043C449.171 315.124 435.424 349.207 435.424 386.501C435.424 468.515 501.91 535.001 583.924 535.001C665.938 535.001 732.424 468.515 732.424 386.501C732.424 311.462 676.767 249.423 604.482 239.413L715.399 101.315C728.055 106.618 740.403 112.781 752.353 119.79C814.974 156.518 860.626 188.102 885.05 256.466L959.893 256.466C929.362 171.011 869.736 99.0224 791.461 53.1127C713.185 7.20298 621.251 -9.70061 531.765 5.3632C442.278 20.427 360.945 66.4976 302.014 135.504C243.083 204.511 210.312 292.053 209.442 382.794C208.571 473.536 239.657 561.69 297.254 631.814C354.851 701.938 435.285 749.56 524.466 766.338C613.648 783.115 705.889 767.978 785.03 723.578ZM583.924 460.304C543.164 460.304 510.121 427.261 510.121 386.501C510.121 345.741 543.164 312.698 583.924 312.698C624.684 312.698 657.727 345.741 657.727 386.501C657.727 427.261 624.684 460.304 583.924 460.304Z" />
<path d="M29.4609 1091.8C38.5276 1094.47 48.9276 1095.8 60.661 1095.8C72.661 1095.8 83.061 1094.47 91.861 1091.8C100.661 1089.13 107.594 1083.67 112.661 1075.4C117.728 1066.87 120.261 1053.93 120.261 1036.6V1008.2H95.0609V1043.8C95.0609 1054.47 93.5943 1062.47 90.661 1067.8C87.7276 1072.87 83.7276 1076.2 78.6609 1077.8C73.5943 1079.4 67.5943 1080.2 60.661 1080.2C53.9943 1080.2 47.9943 1079.4 42.661 1077.8C37.5943 1076.2 33.5943 1072.87 30.661 1067.8C27.9943 1062.47 26.661 1054.47 26.661 1043.8V903.4C26.661 893 27.9943 885.267 30.661 880.2C33.5943 874.867 37.5943 871.4 42.661 869.8C47.9943 868.2 53.9943 867.4 60.661 867.4C67.3276 867.4 73.1943 868.2 78.2609 869.8C83.5943 871.4 87.7276 874.867 90.661 880.2C93.5943 885.267 95.0609 893 95.0609 903.4V945.4H120.261V903.8C120.261 889.133 117.728 878.067 112.661 870.6C107.594 863.133 100.661 858.067 91.861 855.4C83.061 852.733 72.7943 851.4 61.061 851.4C49.5943 851.4 39.1943 852.733 29.861 855.4C20.7943 857.8 13.5943 862.733 8.26095 870.2C3.19428 877.667 0.66095 888.867 0.66095 903.8V1037C0.66095 1054.07 3.19428 1066.87 8.26095 1075.4C13.5943 1083.67 20.661 1089.13 29.4609 1091.8Z" />
<path fill-rule="evenodd" clip-rule="evenodd" d="M197.627 854.6L145.227 1091H171.627L183.627 1036.2H241.627L254.427 1091H281.627L230.027 854.6H197.627ZM241.227 1022.2H184.427L213.227 885.4L241.227 1022.2Z" />
<path d="M319.555 872.6V1091H344.755V872.6H385.155V854.6H279.955V872.6H319.555Z" />
<path d="M414.817 854.6V1091H440.017V977H509.217V1091H534.017V854.6H509.217V957.8H440.017V854.6H414.817Z" />
<path fill-rule="evenodd" clip-rule="evenodd" d="M609.148 1091.8C617.948 1094.47 628.082 1095.8 639.548 1095.8C651.548 1095.8 661.948 1094.47 670.748 1091.8C679.815 1089.13 686.882 1083.67 691.948 1075.4C697.282 1066.87 699.948 1053.93 699.948 1036.6V903.8C699.948 889.133 697.282 878.067 691.948 870.6C686.882 863.133 679.815 858.067 670.748 855.4C661.948 852.733 651.815 851.4 640.348 851.4C628.882 851.4 618.615 852.733 609.548 855.4C600.482 857.8 593.282 862.733 587.948 870.2C582.882 877.667 580.348 888.867 580.348 903.8V1037C580.348 1054.07 582.882 1066.87 587.948 1075.4C593.282 1083.67 600.348 1089.13 609.148 1091.8ZM657.948 1077.8C652.882 1079.4 646.882 1080.2 639.948 1080.2C633.015 1080.2 626.882 1079.4 621.548 1077.8C616.482 1075.93 612.482 1072.47 609.548 1067.4C606.615 1062.07 605.148 1054.2 605.148 1043.8V903.8C605.148 893.4 606.615 885.667 609.548 880.6C612.482 875.267 616.482 871.8 621.548 870.2C626.882 868.333 633.015 867.4 639.948 867.4C646.615 867.4 652.615 868.333 657.948 870.2C663.282 871.8 667.415 875.267 670.348 880.6C673.282 885.667 674.748 893.4 674.748 903.8V1043.8C674.748 1054.2 673.282 1062.07 670.348 1067.4C667.415 1072.47 663.282 1075.93 657.948 1077.8Z" />
<path fill-rule="evenodd" clip-rule="evenodd" d="M746.848 854.6V1091H772.848V982.2H801.648C809.115 982.2 814.448 985.267 817.648 991.4C821.115 997.267 823.915 1003.93 826.048 1011.4L847.648 1091H875.648L851.248 1009.8C848.048 998.333 844.315 989.933 840.048 984.6C836.233 979.592 830.712 976.61 823.485 975.654C836.108 974.738 846.162 970.787 853.648 963.8C861.915 956.333 866.048 945.8 866.048 932.2V893.8C866.048 880.2 861.915 870.333 853.648 864.2C845.382 857.8 834.582 854.6 821.248 854.6H746.848ZM808.048 964.2H772.848V869.4H812.848C822.448 869.4 829.515 871.8 834.048 876.6C838.848 881.133 841.248 888.333 841.248 898.2V930.2C841.248 941.4 838.715 949.933 833.648 955.8C828.848 961.4 820.315 964.2 808.048 964.2Z" />
<path d="M931.273 872.6V1091H956.473V872.6H996.873V854.6H891.673V872.6H931.273Z" />
<path fill-rule="evenodd" clip-rule="evenodd" d="M1119.56 1087C1128.63 1092.07 1140.36 1094.6 1154.76 1094.6C1169.43 1094.6 1181.16 1092.07 1189.96 1087C1199.03 1081.93 1205.7 1074.87 1209.96 1065.8C1214.5 1056.73 1216.76 1046.6 1216.76 1035.4V994.6C1216.76 978.867 1211.7 966.6 1201.56 957.8C1191.43 948.733 1179.03 944.2 1164.36 944.2C1154.76 944.2 1145.96 946.2 1137.96 950.2C1130.23 953.933 1123.96 959.267 1119.16 966.2V907.4C1119.16 896.733 1122.36 887.933 1128.76 881C1135.43 873.8 1144.36 870.2 1155.56 870.2C1166.5 870.2 1174.9 873.133 1180.76 879C1186.63 884.6 1189.56 893.667 1189.56 906.2V924.6H1214.36V909.4C1214.36 890.2 1209.16 876.067 1198.76 867C1188.63 857.933 1174.23 853.4 1155.56 853.4C1136.9 853.4 1121.83 858.333 1110.36 868.2C1099.16 878.067 1093.56 892.333 1093.56 911V1033C1093.56 1045.27 1095.56 1056.07 1099.56 1065.4C1103.83 1074.73 1110.5 1081.93 1119.56 1087ZM1181.16 1069C1174.5 1075.4 1165.83 1078.6 1155.16 1078.6C1143.96 1078.33 1135.16 1074.87 1128.76 1068.2C1122.36 1061.53 1119.16 1051.67 1119.16 1038.6V994.6C1119.43 984.2 1122.9 976.067 1129.56 970.2C1136.5 964.333 1144.9 961.4 1154.76 961.4C1165.16 961.667 1173.83 964.733 1180.76 970.6C1187.96 976.467 1191.56 985.533 1191.56 997.8V1038.6C1191.56 1052.2 1188.1 1062.33 1181.16 1069Z" />
</svg>
